<svg width="95" height="46" viewBox="0 0 95 46" fill="none" xmlns="http://www.w3.org/2000/svg">
<path d="M27.963 34.7849V28.9349H26.598V28.2849H27.963V27.4789C27.963 27.0109 28.0627 26.6036 28.262 26.2569C28.4613 25.9102 28.7473 25.6416 29.12 25.4509C29.4927 25.2602 29.9347 25.1649 30.446 25.1649C30.8793 25.1649 31.2693 25.2472 31.616 25.4119C31.9713 25.5766 32.2487 25.8106 32.448 26.1139C32.6473 26.4172 32.747 26.7682 32.747 27.1669H32.071V27.1279C32.0623 26.7206 31.9063 26.3912 31.603 26.1399C31.2997 25.8886 30.9097 25.7629 30.433 25.7629C29.8783 25.7629 29.4363 25.9102 29.107 26.2049C28.7863 26.4996 28.626 26.9242 28.626 27.4789C28.626 27.5656 28.626 27.6566 28.626 27.7519C28.626 27.8386 28.626 27.9296 28.626 28.0249C28.6347 28.0596 28.639 28.1029 28.639 28.1549C28.639 28.1982 28.639 28.2416 28.639 28.2849H31.72V28.9349H28.665V34.7849H27.963ZM33.2197 34.7849V28.2849H33.9217V34.7849H33.2197ZM33.5057 27.2839L33.1027 25.0999H34.0387L33.6357 27.2839H33.5057ZM36.7012 34.7849V28.2849H37.4032V30.2349C37.5939 29.6022 37.9189 29.0996 38.3782 28.7269C38.8376 28.3456 39.3749 28.1549 39.9902 28.1549C40.5622 28.1549 41.0562 28.2806 41.4722 28.5319C41.8882 28.7832 42.2046 29.1472 42.4212 29.6239C42.6466 30.1006 42.7592 30.6639 42.7592 31.3139V34.7849H42.0572V31.4049C42.0572 30.6076 41.8492 29.9792 41.4332 29.5199C41.0172 29.0519 40.4539 28.8179 39.7432 28.8179C39.3099 28.8179 38.9112 28.9306 38.5472 29.1559C38.1919 29.3812 37.9102 29.6932 37.7022 30.0919C37.5029 30.4819 37.4032 30.9196 37.4032 31.4049V34.7849H36.7012ZM47.8183 34.9149C47.2463 34.9149 46.7219 34.7676 46.2453 34.4729C45.7773 34.1696 45.4089 33.7622 45.1403 33.2509C44.8716 32.7309 44.7373 32.1589 44.7373 31.5349C44.7373 30.9109 44.8716 30.3432 45.1403 29.8319C45.4089 29.3119 45.7773 28.9046 46.2453 28.6099C46.7219 28.3066 47.2463 28.1549 47.8183 28.1549C48.4943 28.1549 49.0836 28.3542 49.5863 28.7529C50.0976 29.1516 50.4573 29.6759 50.6653 30.3259V25.5549H51.3673V34.7849H50.6653V32.7309C50.4573 33.3896 50.0976 33.9182 49.5863 34.3169C49.0836 34.7156 48.4943 34.9149 47.8183 34.9149ZM48.0653 34.2519C48.5506 34.2519 48.9926 34.1349 49.3913 33.9009C49.7899 33.6582 50.1019 33.3289 50.3273 32.9129C50.5613 32.4969 50.6783 32.0376 50.6783 31.5349C50.6783 31.0322 50.5613 30.5729 50.3273 30.1569C50.1019 29.7409 49.7899 29.4159 49.3913 29.1819C48.9926 28.9392 48.5506 28.8179 48.0653 28.8179C47.5799 28.8179 47.1379 28.9392 46.7393 29.1819C46.3406 29.4159 46.0243 29.7409 45.7903 30.1569C45.5649 30.5729 45.4523 31.0322 45.4523 31.5349C45.4523 32.0376 45.5649 32.4969 45.7903 32.9129C46.0243 33.3289 46.3406 33.6582 46.7393 33.9009C47.1379 34.1349 47.5799 34.2519 48.0653 34.2519Z" fill="#0A0A0A"/>
<path d="M44.865 41.3451C44.293 41.3451 43.799 41.2194 43.383 40.9681C42.967 40.7168 42.6463 40.3528 42.421 39.8761C42.2043 39.3994 42.096 38.8318 42.096 38.1731V34.7151H42.798L42.811 38.0951C42.811 38.8924 43.0147 39.5251 43.422 39.9931C43.838 40.4524 44.4013 40.6821 45.112 40.6821C45.5453 40.6821 45.9397 40.5694 46.295 40.3441C46.659 40.1188 46.9407 39.8111 47.14 39.4211C47.348 39.0224 47.452 38.5804 47.452 38.0951V34.7151H48.154V41.2151H47.452V39.2651C47.2613 39.8978 46.9363 40.4048 46.477 40.7861C46.0177 41.1588 45.4803 41.3451 44.865 41.3451ZM53.278 41.3581C52.4287 41.3581 51.7094 41.1631 51.12 40.7731C50.5307 40.3744 50.1884 39.7938 50.093 39.0311H50.808C50.9034 39.6031 51.1764 40.0321 51.627 40.3181C52.0864 40.6041 52.6237 40.7471 53.239 40.7471C53.5424 40.7471 53.85 40.7038 54.162 40.6171C54.474 40.5304 54.734 40.3874 54.942 40.1881C55.1587 39.9888 55.267 39.7374 55.267 39.4341C55.267 39.1394 55.1804 38.9098 55.007 38.7451C54.8424 38.5718 54.6214 38.4461 54.344 38.3681C54.0754 38.2814 53.7027 38.1991 53.226 38.1211C53.1827 38.1124 53.1307 38.1038 53.07 38.0951C53.018 38.0864 52.9704 38.0778 52.927 38.0691C52.3377 37.9824 51.8654 37.8871 51.51 37.7831C51.1547 37.6791 50.8644 37.5231 50.639 37.3151C50.4137 37.0984 50.301 36.8038 50.301 36.4311C50.301 36.0151 50.4224 35.6684 50.665 35.3911C50.9164 35.1051 51.2414 34.8971 51.64 34.7671C52.0474 34.6371 52.485 34.5721 52.953 34.5721C53.759 34.5721 54.4307 34.7714 54.968 35.1701C55.5054 35.5601 55.813 36.1234 55.891 36.8601H55.189C55.1197 36.2968 54.877 35.8764 54.461 35.5991C54.045 35.3218 53.5424 35.1831 52.953 35.1831C52.4504 35.1831 51.9997 35.2958 51.601 35.5211C51.2024 35.7464 51.003 36.0974 51.003 36.5741C51.003 36.8254 51.0767 37.0291 51.224 37.1851C51.38 37.3411 51.588 37.4668 51.848 37.5621C52.108 37.6488 52.4374 37.7224 52.836 37.7831C52.9054 37.7918 52.9704 37.8048 53.031 37.8221C53.0917 37.8308 53.1567 37.8394 53.226 37.8481C53.252 37.8568 53.278 37.8611 53.304 37.8611C53.33 37.8611 53.3604 37.8654 53.395 37.8741C53.967 37.9608 54.4264 38.0604 54.773 38.1731C55.1197 38.2858 55.4014 38.4548 55.618 38.6801C55.8347 38.8968 55.943 39.1958 55.943 39.5771C55.943 39.9844 55.8087 40.3224 55.54 40.5911C55.28 40.8511 54.9464 41.0461 54.539 41.1761C54.1317 41.2974 53.7114 41.3581 53.278 41.3581Z" fill="#0A0A0A"/>
<path d="M52.2241 9.92198C51.402 10.0739 50.8369 10.8335 51.0424 11.5136C51.1672 11.9332 51.5048 12.2732 52.2974 12.7797C53.1121 13.3006 53.413 13.6116 53.5672 14.0964C53.6259 14.2845 53.8974 15.3697 54.169 16.5055C54.8883 19.5079 55.7983 22.872 55.9378 23.0239C55.9965 23.089 56.2387 23.2192 56.4662 23.3133C57.6112 23.7618 58.8295 24.4925 59.8423 25.3317L60.3708 25.7731V26.9306C60.3708 29.1227 60.6717 30.2947 61.5818 31.6982L61.9047 32.1974L61.435 33.666C60.8258 35.5615 60.4589 36.531 59.9671 37.551C59.1891 39.1354 58.3745 40.3002 57.6699 40.8211C57.0974 41.2407 56.635 41.682 56.5103 41.9135C56.3415 42.2319 56.3781 42.7238 56.591 42.977C57.0974 43.563 58.9616 43.6426 60.0552 43.1217C60.6717 42.8323 60.8992 42.5429 61.6552 41.125C62.7781 39.0052 63.5561 37.9055 64.7157 36.7769L65.3249 36.1837L65.7726 36.6322C66.1395 37.0084 66.257 37.1893 66.4184 37.6379C66.668 38.3396 67.1304 39.0124 67.7395 39.5623L68.2239 39.9964L67.8716 39.9674C67.6661 39.9457 67.1671 40.0036 66.6093 40.1193C65.2001 40.4015 64.9726 40.416 64.2386 40.2423C63.879 40.1555 63.4827 40.0904 63.3579 40.0904C62.5212 40.0904 61.7653 40.7777 61.7653 41.5373C61.7653 42.174 61.9121 42.2391 63.6588 42.3042L64.9579 42.3548V42.7889C64.9579 43.1796 64.9799 43.2375 65.1634 43.3749C65.3689 43.5196 65.4423 43.5269 67.7322 43.5269C69.0313 43.5269 70.5725 43.5052 71.1597 43.469C74.6973 43.2881 75.7615 43.2592 77.1486 43.3026C78.6312 43.3388 78.7119 43.3388 78.8881 43.1941C78.9982 43.1145 79.1009 42.9409 79.1303 42.8034C79.1523 42.6659 79.189 42.5502 79.2037 42.5502C79.2257 42.5502 79.4092 42.637 79.6147 42.7383C80.7229 43.2953 82.3596 43.2375 84.2091 42.5791C86.2348 41.8629 87.3357 41.002 88.3412 39.3597C89.1265 38.0647 89.5376 36.6684 90.0953 33.4345C90.5137 30.982 90.8293 29.6725 91.2476 28.6597C91.9082 27.0536 92.8256 25.9322 93.9705 25.3317C94.6531 24.9773 94.91 24.724 94.9834 24.3478C95.0494 24.0006 94.9173 23.7546 94.6091 23.6244C94.2861 23.4942 94.0513 23.4942 93.5082 23.6316C91.6733 24.0946 90.11 25.556 89.1339 27.7119C88.6788 28.7176 88.3779 29.7087 87.8201 32.06C87.0789 35.1781 86.5578 36.5165 85.4862 38.1009C84.811 39.092 83.6 40.3074 83.0202 40.5679C82 41.0309 80.9064 40.6981 79.6881 39.555L79.0495 38.9473L79.0129 38.2383C78.9541 37.0591 79.0422 36.2054 79.3211 35.3372C79.5413 34.6355 79.5633 34.4763 79.556 33.7239C79.556 33.0873 79.5046 32.7183 79.3578 32.1323C78.8514 30.1066 78.0147 28.5512 76.8257 27.4153C76.0844 26.7063 75.5413 26.3518 74.2569 25.7514C73.2074 25.2594 72.4001 24.7602 70.7927 23.6316C69.2735 22.5536 68.8184 21.9025 68.6349 20.5569C68.5909 20.2386 68.5982 20.2241 68.9138 19.9564C69.3762 19.5802 69.4716 19.233 69.5157 17.7354C69.5524 16.614 69.567 16.52 69.7652 16.1438C70.0368 15.6156 70.2716 14.9211 70.3964 14.2772C70.5065 13.7129 70.5358 12.4758 70.4404 12.3383C70.4037 12.2805 69.9707 12.4758 69.1193 12.9316L67.8423 13.6116L67.4239 13.3584C66.8148 12.9822 65.9928 12.6928 65.2001 12.5626C64.7524 12.483 64.4955 12.4035 64.4441 12.3311C64.1579 11.8826 63.6295 11.2821 63.2625 10.9855C62.7928 10.6093 61.9854 10.1101 61.6992 10.0305L61.5231 9.97985L61.5744 11.4847C61.6038 12.3166 61.6405 13.1197 61.6625 13.2716C61.7066 13.5393 61.6845 13.5682 61.068 14.1976C60.2607 15.0224 60.0992 15.3624 59.9891 16.4114C59.9451 16.8383 59.9084 17.4605 59.9011 17.786C59.9011 18.1261 59.857 18.4154 59.8056 18.4661C59.6735 18.5963 58.8809 18.1405 58.4772 17.6992C58.0882 17.2868 57.78 16.6936 57.1341 15.1454C56.1947 12.9099 55.6442 11.9838 54.6461 10.9927C53.7727 10.1245 53.002 9.78452 52.2241 9.92198Z" fill="#0A0A0A"/>
<path d="M32.2796 0.112087C32.2502 0.198788 32.1989 0.57449 32.1476 0.942966L32.0596 1.61489L31.8322 1.40537C31.5168 1.11637 31.0914 0.812916 31.0034 0.812916C30.8493 0.812916 30.6586 2.5686 30.7687 2.9443C30.7833 2.98765 30.7247 3.1466 30.6366 3.30555C30.556 3.4645 30.2186 4.51936 29.8812 5.65369C29.5511 6.78801 29.2284 7.86454 29.1697 8.05239C29.1184 8.24747 29.0377 8.3992 28.9937 8.3992C28.9497 8.3992 28.803 8.50035 28.6636 8.6304C28.4803 8.8038 28.4143 8.92662 28.4143 9.10725C28.4143 9.25175 28.4583 9.36013 28.5243 9.3818C28.5829 9.4107 28.6123 9.45405 28.5903 9.49017C28.5683 9.53352 28.5829 9.60577 28.627 9.65635C28.6856 9.72137 28.627 9.80085 28.3922 9.9598C27.3654 10.6823 26.3679 11.7372 25.4144 13.1171C24.4462 14.5188 23.4267 15.458 21.5197 16.708C18.1898 18.8899 16.2461 20.7323 14.4198 23.4273C13.8917 24.2148 13.5764 24.5833 12.8209 25.313C11.0459 27.0181 10.3638 27.3866 7.32727 28.268C5.58897 28.7738 4.90685 29.0483 3.76999 29.713C2.21505 30.6162 0.938829 31.671 0.322723 32.5452L0 33.0004L0.528091 32.4441C1.1442 31.8083 1.74564 31.3459 2.76515 30.7679C4.50345 29.7636 5.61097 29.3735 7.43729 29.0989C10.1438 28.6943 11.552 28.2608 12.7842 27.4444C12.9969 27.2999 13.1876 27.1843 13.2096 27.1843C13.2316 27.1843 13.2316 27.8779 13.2096 28.716C13.1656 30.2983 13.0703 30.963 12.7182 32.2057C12.3735 33.4122 11.7647 34.6549 11.0239 35.6448L10.6718 36.1144L10.5178 37.7039C10.4298 38.5709 10.3125 39.6908 10.2538 40.1893C10.1951 40.6878 10.1658 41.208 10.1878 41.3453C10.2611 41.7283 10.5472 42.169 10.8259 42.3135C11.0606 42.4363 11.1339 42.4435 11.728 42.3568C12.2855 42.2774 12.4101 42.234 12.5935 42.0534C12.7842 41.8655 12.8062 41.8077 12.7695 41.5187C12.7402 41.2586 12.6669 41.1286 12.3735 40.8179C12.1754 40.6084 11.9847 40.3483 11.9627 40.2471C11.9261 40.1098 12.0434 39.4957 12.3148 38.3686C12.5348 37.451 12.7255 36.6924 12.7402 36.6852C12.7475 36.678 13.4957 36.0349 14.4052 35.2619C15.3147 34.496 16.0921 33.8385 16.1435 33.8096C16.2021 33.7735 16.2168 33.8457 16.1948 34.0625C16.1141 34.7778 15.9161 35.7821 15.7621 36.2372L15.5934 36.7285L15.9821 38.2241C16.1948 39.0478 16.4735 40.1532 16.6055 40.6878C16.8549 41.7355 17.0456 42.1112 17.427 42.3424C17.8744 42.6097 18.0358 42.6025 18.6079 42.3207C19.312 41.9667 19.5687 41.6994 19.51 41.3598C19.4587 41.0346 19.2313 40.8034 18.7106 40.5361C18.3952 40.3844 18.2558 40.2616 18.1825 40.0954C18.1018 39.8859 17.7791 37.256 17.7791 36.7719C17.7791 36.6418 18.2338 35.8037 19.0186 34.4454C19.7081 33.2822 20.3609 32.1334 20.4782 31.9022C20.9916 30.9052 21.4024 29.4602 21.8204 27.1915C22.0918 25.6887 22.1065 25.667 22.8766 25.1251C23.7641 24.4966 25.1357 24.0053 26.9473 23.6657C30.8933 22.9287 33.6585 21.8161 35.7709 20.1254L36.2696 19.7208L36.6877 19.7642C37.4945 19.8436 41.6532 20.3277 41.7412 20.3566C41.8806 20.4 41.3598 21.8305 41.0224 22.3435C40.8317 22.6325 40.6117 22.8565 40.377 23.0082C39.9369 23.2755 39.7829 23.5934 39.7829 24.2509C39.7829 24.5038 39.7315 24.8506 39.6729 25.0168C39.5188 25.4358 39.5335 25.6164 39.7315 25.7898C39.9809 26.021 40.1863 26.0499 40.6264 25.9199C41.2791 25.732 41.4992 25.4647 42.35 23.7957C43.3255 21.8666 43.9196 20.3566 43.9196 19.8147C43.9123 19.3523 43.7729 19.0417 43.4429 18.7743C43.0541 18.4492 42.6727 18.2975 40.9564 17.7773C40.0469 17.4955 39.2621 17.2499 39.2035 17.2137C39.1374 17.1776 39.9296 16.5274 41.7192 15.1474L44.3377 13.1388L45.8926 12.6114C47.0148 12.2357 47.5502 12.0912 47.8289 12.084C48.071 12.084 48.2984 12.0334 48.4597 11.9395C48.5917 11.86 48.8851 11.7372 49.1125 11.6577C49.7799 11.4337 49.9486 11.3109 50.4474 10.7257C51.1295 9.9309 51.1735 9.5841 50.6161 9.33123C50.264 9.1795 49.6113 9.1506 49.2372 9.28065C49.0978 9.324 48.7751 9.50462 48.5257 9.68525C48.005 10.0465 47.1175 10.3789 44.8658 11.0436C44.125 11.2603 43.3328 11.5349 43.0981 11.6505C42.8708 11.7588 41.5945 12.3296 40.2596 12.9148C38.9321 13.5001 37.8172 13.9914 37.7952 14.0058C37.7659 14.0203 37.6045 13.6229 37.4431 13.1099C37.2745 12.6042 37.0691 12.0045 36.9811 11.7805L36.827 11.3759L37.0911 11.1158C37.2891 10.928 37.3625 10.7979 37.3625 10.639C37.3625 10.4439 37.2524 10.1549 37.1351 10.061C37.1131 10.0393 37.2084 9.59855 37.3478 9.07835L37.5972 8.13187L37.9786 8.04517C38.4773 7.93679 39.2915 7.48884 40.4137 6.70854C41.4478 5.98604 41.6972 5.68981 41.8439 5.01066C41.8879 4.78668 42.0053 4.51213 42.1006 4.40376C42.196 4.28815 42.2767 4.11475 42.2767 4.0136C42.2767 3.8691 42.0933 2.84315 41.9466 2.21457C41.9026 2.02672 41.2058 0.950191 41.0444 0.827366C40.8317 0.668415 40.531 0.73344 39.2328 1.24642C37.8025 1.80997 37.4578 1.86777 37.0251 1.60044C36.8857 1.52097 36.7757 1.42704 36.7757 1.39092C36.7757 1.18862 35.2354 1.05857 34.3333 1.18862L33.8345 1.26087L33.4091 0.834591C33.1744 0.596165 32.8297 0.299938 32.6463 0.177113C32.3163 -0.0468636 32.3163 -0.0468636 32.2796 0.112087Z" fill="#0A0A0A"/>
</svg>
